<?xml version="1.0" encoding="UTF-8"?>
<svg id="Layer_2" data-name="Layer 2" xmlns="http://www.w3.org/2000/svg" viewBox="0 0 77.69 51.65">
  <defs>
    <style>
      .cls-1 {
        fill: #dd4126;
      }
    </style>
  </defs>
  <g id="Layer_1-2" data-name="Layer 1">
    <path class="cls-1" d="m1.91,22.87H0h1.91Zm52.87,8.89c.7-.79.63-1.99-.16-2.69-.79-.7-1.99-.63-2.69.16l2.85,2.53Zm-16.67,15.88l1.35,1.35.04-.04.04-.04-1.42-1.27Zm-4.26,2.11v1.91h.16s-.16-1.91-.16-1.91Zm3.86-18.19c.59-.87.37-2.06-.5-2.65-.87-.59-2.06-.37-2.65.5l3.15,2.14Zm-.36-28.09l-1.54,1.12h0l1.54-1.12Zm-9.5,4.07l1.67-.91-1.67.91Zm-14.97.52l-1.76.73,1.76-.73Zm1.27,27.33l-.71,1.77.71-1.77Zm12.6,8.91l-1.58-1.07,1.58,1.07Zm-.43.95l1.87.35-1.87-.35Zm49.06-12.65l-1.7.85,1.7-.85Zm-4.46-4.66l2.76,5.52,3.41-1.7-2.76-5.52-3.41,1.7Zm-56.05,5.68l-9.85-3.94-1.42,3.54,9.85,3.94,1.42-3.54Zm-11.04-5.71v-5.04H0v5.04h3.81Zm0-5.04v-13.34H0v13.34h3.81Zm1.91-15.24h3.64v-3.81h-3.64v3.81Zm5.4,1.17l5.2,12.46,3.52-1.47-5.2-12.46-3.52,1.47Zm10.48,15.98h44.2v-3.81H21.6v3.81Zm30.34,4.45l-15.24,17.15,2.85,2.53,15.24-17.15-2.85-2.53Zm-18.08,18.62h-3.79v3.81h3.79v-3.81Zm-5.53-2.48l9.39-13.8-3.15-2.14-9.39,13.8,3.15,2.14Zm1.74,2.48c-1.21,0-2.09-1.1-1.88-2.25l-3.75-.71c-.65,3.45,1.98,6.76,5.62,6.76v-3.81Zm6.7-1.55c-1.06,1.06-1.28,1.24-1.46,1.33-.14.07-.3.11-1.62.22l.32,3.8c1.04-.09,2.05-.15,2.98-.6.88-.44,1.62-1.2,2.46-2.05l-2.7-2.69Zm35.2-10.09h-26.23v3.81h26.23v-3.81Zm-41.02,0h-2.65v3.81h2.65v-3.81Zm22.05-14.46L38.89,2.35l-3.08,2.24,14.1,19.39,3.08-2.24ZM34.27,0h-3.07v3.81h3.07V0Zm-8.09,8.45l8.36,15.33,3.35-1.82-8.36-15.33-3.35,1.83ZM31.19,0c-4.34,0-7.1,4.64-5.02,8.45l3.35-1.83c-.69-1.27.23-2.82,1.67-2.82V0Zm7.7,2.35c-1.08-1.48-2.79-2.35-4.62-2.35v3.81c.61,0,1.18.29,1.54.78l3.08-2.24Zm-22.57,18.9c.89,2.13,2.97,3.52,5.28,3.52v-3.81c-.77,0-1.46-.46-1.76-1.17l-3.52,1.47Zm-6.96-13.63c.77,0,1.46.46,1.76,1.17l3.52-1.47c-.89-2.13-2.97-3.52-5.28-3.52v3.81Zm-4.35,22.06c-.72-.29-1.2-.99-1.2-1.77H0c0,2.34,1.42,4.44,3.59,5.31l1.42-3.54Zm8.43,7.48c4.73,1.89,9.77,2.86,14.86,2.86v-3.81c-4.61,0-9.17-.88-13.45-2.59l-1.42,3.54Zm11.73,6.07c-.26.38-.59.95-.73,1.67l3.75.71s0,.01.01-.03c.02-.04.06-.11.12-.2l-3.15-2.14Zm48.5-9.77c.63,1.27-.29,2.76-1.7,2.76v3.81c4.25,0,7.01-4.47,5.11-8.27l-3.41,1.7ZM3.81,9.53c0-1.05.85-1.91,1.91-1.91v-3.81C2.56,3.81,0,6.37,0,9.53h3.81Zm70.51,16.7c-1.61-3.23-4.91-5.27-8.52-5.27v3.81c2.17,0,4.15,1.22,5.11,3.16l3.41-1.7Z"/>
  </g>
</svg>