<?xml version="1.0" encoding="UTF-8"?>
<svg id="Layer_2" data-name="Layer 2" xmlns="http://www.w3.org/2000/svg" viewBox="0 0 160.76 45.73">
  <defs>
    <style>
      .cls-1 {
        fill: #dd4126;
      }
    </style>
  </defs>
  <g id="Layer_1-2" data-name="Layer 1">
    <path class="cls-1" d="m93.66,20.25h-1.69,1.69Zm46.82,7.87c.62-.7.56-1.76-.14-2.38-.7-.62-1.76-.56-2.38.14l2.52,2.24Zm-14.76,14.06l1.19,1.19.03-.04.03-.04-1.26-1.12Zm-3.77,1.87v1.69h.14s-.14-1.69-.14-1.69Zm3.41-16.1c.52-.77.32-1.82-.45-2.34-.77-.52-1.82-.32-2.34.45l2.79,1.9Zm-.32-24.87l-1.36.99h0l1.36-.99Zm-8.41,3.6l1.48-.81-1.48.81Zm-13.25.46l-1.56.65,1.56-.65Zm1.12,24.19l-.63,1.57.63-1.57Zm11.15,7.89l-1.4-.95,1.4.95Zm-.38.84l1.66.31-1.66-.31Zm43.44-11.2l-1.51.75,1.51-.75Zm-3.95-4.13l2.44,4.88,3.02-1.51-2.44-4.88-3.02,1.51Zm-49.63,5.03l-8.72-3.49-1.25,3.13,8.72,3.49,1.25-3.13Zm-9.78-5.05v-4.46h-3.37v4.46h3.37Zm0-4.46v-11.81h-3.37v11.81h3.37Zm1.69-13.5h3.23v-3.37h-3.23v3.37Zm4.78,1.04l4.6,11.04,3.11-1.3-4.6-11.03-3.11,1.3Zm9.28,14.15h39.14v-3.37h-39.14v3.37Zm26.86,3.94l-13.5,15.19,2.52,2.24,13.5-15.19-2.52-2.24Zm-16.01,16.48h-3.36v3.37h3.36v-3.37Zm-4.9-2.19l8.31-12.22-2.79-1.9-8.31,12.22,2.79,1.9Zm1.54,2.19c-1.07,0-1.85-.98-1.66-1.99l-3.32-.62c-.57,3.05,1.76,5.99,4.98,5.99v-3.37Zm5.94-1.37c-.94.94-1.13,1.1-1.29,1.18-.12.06-.27.1-1.43.2l.29,3.36c.92-.08,1.82-.13,2.64-.54.78-.39,1.43-1.07,2.18-1.82l-2.39-2.39Zm31.17-8.93h-23.22v3.37h23.22v-3.37Zm-36.32,0h-2.34v3.37h2.34v-3.37Zm19.52-12.8l-12.49-17.17-2.73,1.98,12.49,17.17,2.73-1.98ZM122.32,0h-2.72v3.37h2.72V0Zm-7.16,7.49l7.4,13.57,2.96-1.62-7.4-13.57-2.96,1.62Zm4.44-7.49c-3.84,0-6.28,4.11-4.44,7.49l2.96-1.62c-.61-1.12.2-2.5,1.48-2.5V0Zm6.81,2.08c-.95-1.31-2.47-2.08-4.09-2.08v3.37c.54,0,1.05.26,1.36.69l2.73-1.98Zm-19.98,16.74c.79,1.88,2.63,3.11,4.67,3.11v-3.37c-.68,0-1.29-.41-1.56-1.04l-3.11,1.3Zm-6.16-12.07c.68,0,1.29.41,1.56,1.04l3.11-1.3c-.79-1.89-2.63-3.11-4.67-3.11v3.37Zm-3.85,19.53c-.64-.26-1.06-.88-1.06-1.57h-3.37c0,2.07,1.26,3.93,3.18,4.7l1.25-3.13Zm7.46,6.62c4.19,1.67,8.65,2.53,13.16,2.53v-3.37c-4.08,0-8.12-.78-11.91-2.29l-1.25,3.13Zm10.38,5.37c-.23.34-.52.84-.64,1.48l3.32.62s0,0,.01-.03c.02-.04.05-.09.1-.18l-2.79-1.9Zm42.94-8.65c.56,1.12-.25,2.44-1.51,2.44v3.37c3.76,0,6.21-3.96,4.53-7.33l-3.02,1.51Zm-61.85-21.18c0-.93.76-1.69,1.69-1.69v-3.37c-2.8,0-5.06,2.27-5.06,5.06h3.37Zm62.43,14.79c-1.43-2.86-4.35-4.66-7.55-4.66v3.37c1.92,0,3.67,1.08,4.53,2.8l3.02-1.51Z"/>
    <g>
      <path class="cls-1" d="m28.28,20.61V4.2c0-.34.12-.63.37-.87.25-.24.54-.36.88-.36h15.19c.34,0,.63.12.88.37.24.25.36.54.36.88v1.24c0,.34-.12.63-.36.88-.24.24-.53.36-.88.36h-11.48v4.64h9.34c.34,0,.63.12.88.37.24.25.36.54.36.87v1.25c0,.34-.12.64-.36.88-.24.24-.53.36-.88.36h-9.34v5.53c0,.36-.12.66-.36.9-.24.24-.53.36-.88.36h-2.48c-.34,0-.64-.12-.88-.36-.25-.24-.37-.54-.37-.9Z"/>
      <path class="cls-1" d="m48.11,20.66V4.26c0-.36.12-.66.37-.91.25-.25.54-.37.88-.37h2.48c.34,0,.63.12.88.37.24.25.36.55.36.91v13.89h7.48c.34,0,.63.12.88.37.24.25.36.54.36.88v1.24c0,.34-.12.63-.36.88-.24.24-.53.36-.88.36h-11.19c-.34,0-.64-.12-.88-.35-.25-.23-.37-.52-.37-.86Z"/>
      <path class="cls-1" d="m59.35,3.61c0-.42.23-.63.69-.63h2.5c.99,0,1.76.42,2.29,1.25l4.27,6.58,4.26-6.58c.54-.83,1.31-1.25,2.29-1.25h2.52c.45,0,.67.21.67.63,0,.19-.07.4-.21.62l-7.05,10.9v5.53c0,.34-.12.63-.36.86-.24.23-.53.35-.88.35h-2.48c-.34,0-.64-.12-.88-.35-.25-.23-.37-.52-.37-.86v-5.53l-7.04-10.9c-.15-.22-.22-.43-.22-.62Z"/>
      <path class="cls-1" d="m0,42.61v-16.41c0-.34.12-.63.37-.87.25-.24.54-.36.88-.36h15.19c.34,0,.63.12.88.37.24.25.36.54.36.88v1.24c0,.34-.12.63-.36.88-.24.24-.53.36-.88.36H4.97v3.84h8.88c.34,0,.63.12.88.36s.36.53.36.88v1.24c0,.34-.12.64-.36.88s-.53.36-.88.36H4.97v3.89h10.45c.33,0,.62.12.86.36s.36.53.36.87v1.27c0,.34-.12.63-.37.88-.25.24-.54.36-.88.36H1.25c-.34,0-.64-.12-.88-.36-.25-.24-.37-.54-.37-.9Z"/>
      <path class="cls-1" d="m18.55,42.66l3.31-12.54c.9-3.42,3.81-5.13,8.75-5.14h7.1c.33,0,.6.12.81.37.22.25.32.53.32.86v16.46c0,.34-.12.63-.37.86-.25.23-.54.35-.88.35h-2.48c-.36,0-.66-.12-.89-.35-.23-.23-.35-.53-.35-.89v-3.32h-9.37l-.88,3.32c-.09.36-.29.66-.59.89-.31.23-.63.35-.98.35h-2.6c-.34,0-.59-.1-.74-.3-.15-.2-.22-.37-.22-.52,0-.15.02-.28.05-.4Zm6.93-7.08h8.39v-6.88h-3.76c-.84,0-1.58.24-2.21.72s-1.05,1.12-1.27,1.93l-1.16,4.23Z"/>
      <path class="cls-1" d="m40.54,39.04c0-.52.15-.89.46-1.11.31-.22.61-.34.9-.34h1.57c.79,0,1.39.43,1.8,1.29.41.86,1.34,1.29,2.78,1.29l4.61.09c1.55,0,2.32-.51,2.32-1.52,0-.76-.94-1.37-2.83-1.81-.84-.2-1.77-.4-2.79-.6-1.02-.2-2.03-.45-3.04-.74-1.01-.3-1.93-.65-2.77-1.05-.84-.4-1.53-.96-2.05-1.67s-.78-1.54-.78-2.5c0-1.77.63-3.13,1.88-4.08,1.26-.95,3.42-1.43,6.48-1.43l3.35.08c1.8,0,3.42.46,4.87,1.39,1.44.93,2.17,2.08,2.17,3.47,0,.52-.15.89-.46,1.12-.31.23-.6.34-.88.34h-1.57c-.79,0-1.39-.43-1.81-1.3-.41-.86-1.34-1.3-2.78-1.3l-3.97-.08c-1.55,0-2.32.51-2.32,1.52,0,.55.49,1.01,1.47,1.36.98.35,2.17.66,3.56.93,1.39.27,2.79.59,4.2.97s2.6,1,3.58,1.86c.98.86,1.47,1.94,1.47,3.23,0,1.77-.63,3.13-1.89,4.08-1.26.95-3.42,1.43-6.48,1.43l-3.99-.08c-1.8,0-3.43-.46-4.88-1.39-1.45-.93-2.17-2.08-2.17-3.47Z"/>
      <path class="cls-1" d="m59.62,25.61c0-.42.23-.63.69-.63h2.5c.99,0,1.76.42,2.29,1.25l4.27,6.58,4.26-6.58c.54-.83,1.31-1.25,2.29-1.25h2.52c.45,0,.67.21.67.63,0,.19-.07.4-.21.62l-7.05,10.9v5.53c0,.34-.12.63-.36.86-.24.23-.53.35-.88.35h-2.48c-.34,0-.64-.12-.88-.35-.25-.23-.37-.52-.37-.86v-5.53l-7.04-10.9c-.15-.22-.22-.43-.22-.62Z"/>
    </g>
  </g>
</svg>